<svg preserveAspectRatio="none" width="100%" height="100%" overflow="visible" style="display: block;" viewBox="0 0 48 48" fill="none" xmlns="http://www.w3.org/2000/svg">
<g id="card-slash">
<path id="Vector (Stroke)" fill-rule="evenodd" clip-rule="evenodd" d="M0 16.1861C0 15.2614 0.749663 14.5117 1.67442 14.5117H31.2335C32.1582 14.5117 32.9079 15.2614 32.9079 16.1861C32.9079 17.1109 32.1582 17.8606 31.2335 17.8606H1.67442C0.749663 17.8606 0 17.1109 0 16.1861Z" fill="var(--fill-0, #C1B5DB)"/>
<path id="Vector (Stroke)_2" fill-rule="evenodd" clip-rule="evenodd" d="M8.93027 34.0467C8.93027 33.1219 9.67994 32.3723 10.6047 32.3723H13.4847C14.4094 32.3723 15.1591 33.1219 15.1591 34.0467C15.1591 34.9714 14.4094 35.7211 13.4847 35.7211H10.6047C9.67994 35.7211 8.93027 34.9714 8.93027 34.0467Z" fill="var(--fill-0, #C1B5DB)"/>
<path id="Vector (Stroke)_3" fill-rule="evenodd" clip-rule="evenodd" d="M20.093 34.0467C20.093 33.1219 20.8426 32.3723 21.7674 32.3723H29.5813C30.5061 32.3723 31.2558 33.1219 31.2558 34.0467C31.2558 34.9714 30.5061 35.7211 29.5813 35.7211H21.7674C20.8426 35.7211 20.093 34.9714 20.093 34.0467Z" fill="var(--fill-0, #C1B5DB)"/>
<path id="Vector (Stroke)_4" fill-rule="evenodd" clip-rule="evenodd" d="M46.3255 10.9176C47.2502 10.9176 47.9999 11.6672 47.9999 12.592V33.1762C47.9999 37.0825 47.551 40.2009 45.528 42.2048C43.5108 44.2031 40.3719 44.6515 36.4129 44.6515H15.025C14.1002 44.6515 13.3506 43.9019 13.3506 42.9771C13.3506 42.0524 14.1002 41.3027 15.025 41.3027H36.4129C40.4018 41.3027 42.2192 40.7688 43.1713 39.8257C44.1176 38.8882 44.6511 37.1061 44.6511 33.1762V12.592C44.6511 11.6672 45.4007 10.9176 46.3255 10.9176Z" fill="var(--fill-0, #C1B5DB)"/>
<path id="Vector (Stroke)_5" fill-rule="evenodd" clip-rule="evenodd" d="M2.48133 5.79443C4.50064 3.79785 7.63757 3.34883 11.587 3.34883H36.413C38.7157 3.34883 40.6908 3.50473 42.305 3.97336C43.1931 4.2312 43.704 5.16015 43.4462 6.04823C43.1883 6.93632 42.2594 7.44724 41.3713 7.18941C40.2171 6.85432 38.6201 6.69766 36.413 6.69766H11.587C7.6108 6.69766 5.79145 7.23097 4.83588 8.17578C3.8869 9.11408 3.34884 10.8975 3.34884 14.8242V33.1535C3.34884 35.722 3.571 37.4104 4.03073 38.5488C4.44286 39.5693 5.05497 40.1788 6.10581 40.5928C6.96621 40.9317 7.38893 41.904 7.04999 42.7644C6.71104 43.6248 5.73878 44.0475 4.87838 43.7086C2.98224 42.9616 1.68551 41.6846 0.925549 39.8028C0.213184 38.0389 0 35.8091 0 33.1535V14.8242C0 10.9146 0.455426 7.79753 2.48133 5.79443Z" fill="var(--fill-0, #C1B5DB)"/>
<path id="Vector (Stroke)_6" fill-rule="evenodd" clip-rule="evenodd" d="M47.5096 0.490426C48.1635 1.14433 48.1635 2.20451 47.5096 2.85841L2.85841 47.5096C2.20451 48.1635 1.14433 48.1635 0.490426 47.5096C-0.163475 46.8557 -0.163475 45.7955 0.490426 45.1416L45.1416 0.490426C45.7955 -0.163475 46.8557 -0.163475 47.5096 0.490426Z" fill="var(--fill-0, #C1B5DB)"/>
</g>
</svg>
