<svg preserveAspectRatio="none" width="100%" height="100%" overflow="visible" style="display: block;" viewBox="0 0 20.4176 16.8458" fill="none" xmlns="http://www.w3.org/2000/svg">
<g id="ELEMENTS">
<path id="Vector" d="M20.3268 2.02364C19.6663 2.30813 18.972 2.50623 18.2609 2.61305C18.5934 2.55601 19.0825 1.95709 19.2772 1.71467C19.573 1.349 19.7985 0.931565 19.9421 0.483558C19.9421 0.450285 19.9753 0.402751 19.9421 0.378985C19.9254 0.369832 19.9066 0.365035 19.8875 0.365035C19.8684 0.365035 19.8496 0.369832 19.8329 0.378985C19.0608 0.797479 18.239 1.11689 17.3871 1.32965C17.3574 1.33873 17.3258 1.33955 17.2957 1.33201C17.2655 1.32447 17.238 1.30887 17.2161 1.28687C17.1498 1.20784 17.0784 1.13321 17.0024 1.06347C16.6549 0.75186 16.2607 0.496824 15.8341 0.307685C15.2583 0.0712426 14.6363 -0.0311552 14.0152 0.00822422C13.4125 0.0463212 12.8241 0.20812 12.2865 0.483558C11.7572 0.773951 11.2919 1.16846 10.9188 1.64337C10.5263 2.13218 10.2429 2.69946 10.0877 3.30704C9.95972 3.88498 9.9452 4.4823 10.0449 5.06578C10.0449 5.1656 10.0449 5.17986 9.95946 5.1656C6.57334 4.6665 3.7951 3.4639 1.52502 0.882839C1.42529 0.768759 1.37305 0.768759 1.29232 0.882839C0.304501 2.38489 0.784162 4.76156 2.01893 5.93564C2.18515 6.0925 2.35612 6.24461 2.53659 6.38721C1.97045 6.34698 1.41814 6.19342 0.912388 5.93564C0.817406 5.87385 0.765166 5.90712 0.760416 6.0212C0.746954 6.17936 0.746954 6.33837 0.760416 6.49653C0.85951 7.2545 1.15795 7.97252 1.62523 8.57718C2.09251 9.18184 2.71185 9.65144 3.41992 9.93795C3.59253 10.012 3.77239 10.0677 3.95657 10.1043C3.43247 10.2076 2.89494 10.2237 2.36562 10.1519C2.25164 10.1281 2.2089 10.1899 2.25164 10.2992C2.94976 12.2005 4.46473 12.7804 5.57602 13.1037C5.72799 13.1274 5.87997 13.1274 6.05093 13.1655C6.05093 13.1655 6.05093 13.1655 6.02244 13.194C5.69475 13.7929 4.36975 14.1969 3.76186 14.4061C2.65231 14.805 1.46932 14.9575 0.295003 14.8529C0.109787 14.8244 0.0670452 14.8291 0.019554 14.8529C-0.0279372 14.8767 0.019554 14.929 0.0717943 14.9765C0.30925 15.1334 0.546706 15.2712 0.79366 15.4043C1.52885 15.8056 2.30608 16.1245 3.11123 16.355C7.28096 17.5053 11.9731 16.6592 15.1028 13.5457C17.5628 11.1025 18.4271 7.7324 18.4271 4.35753C18.4271 4.22919 18.5839 4.15314 18.6741 4.08659C19.2965 3.60122 19.8452 3.02802 20.303 2.38489C20.3823 2.28903 20.423 2.16697 20.417 2.04265V2.04265C20.417 1.97135 20.417 1.98561 20.3268 2.02364Z" fill="var(--fill-0, white)"/>
</g>
</svg>
