<svg preserveAspectRatio="none" width="100%" height="100%" overflow="visible" style="display: block;" viewBox="0 0 17.71 20.032" fill="none" xmlns="http://www.w3.org/2000/svg">
<g id="ELEMENTS">
<path id="Vector" fill-rule="evenodd" clip-rule="evenodd" d="M13.1222 7.23847C14.4619 8.1917 16.0663 8.70099 17.71 8.69482V5.43434C17.3868 5.43524 17.0646 5.40062 16.749 5.3311V7.92861C15.1016 7.93153 13.4949 7.4164 12.1558 6.45596V13.1617C12.1517 14.262 11.8503 15.3407 11.2833 16.2835C10.7164 17.2262 9.90507 17.9978 8.93548 18.5165C7.96589 19.0351 6.87414 19.2815 5.776 19.2295C4.67785 19.1774 3.61425 18.8289 2.69797 18.2208C3.54551 19.0791 4.62845 19.6664 5.80966 19.9082C6.99088 20.1501 8.21724 20.0357 9.33345 19.5795C10.4497 19.1233 11.4055 18.3459 12.08 17.3456C12.7544 16.3453 13.1172 15.1672 13.1222 13.9605V7.23847ZM14.3112 3.91279C13.63 3.1737 13.2119 2.22991 13.1222 1.22834V0.804475H12.2101C12.3228 1.44112 12.5682 2.0469 12.9302 2.58242C13.2922 3.11794 13.7627 3.57122 14.3112 3.91279V3.91279ZM4.80997 15.6396C4.49383 15.2258 4.30009 14.7316 4.2508 14.213C4.20152 13.6945 4.29866 13.1725 4.53118 12.7065C4.76369 12.2404 5.12225 11.8491 5.56603 11.577C6.00981 11.3049 6.52099 11.163 7.04141 11.1673C7.32873 11.1673 7.61437 11.2112 7.88838 11.2978V7.92861C7.56807 7.88615 7.24501 7.86798 6.92196 7.87426V10.4935C6.25477 10.2824 5.53263 10.3304 4.89919 10.628C4.26574 10.9255 3.7674 11.4508 3.50328 12.0994C3.23917 12.7479 3.22863 13.4722 3.47376 14.1282C3.71889 14.7841 4.20174 15.3237 4.82626 15.6396H4.80997Z" fill="var(--fill-0, #EE1D52)"/>
<path id="Vector_2" fill-rule="evenodd" clip-rule="evenodd" d="M12.1553 6.43422C13.4944 7.39466 15.1011 7.90979 16.7485 7.90687V5.30936C15.8099 5.11073 14.9572 4.62225 14.3108 3.91279C13.7623 3.57122 13.2917 3.11794 12.9297 2.58242C12.5677 2.0469 12.3224 1.44112 12.2096 0.804475H9.80988V13.9605C9.80764 14.5428 9.62327 15.1098 9.28263 15.5819C8.94199 16.054 8.46219 16.4075 7.9106 16.5927C7.359 16.7779 6.76329 16.7856 6.20711 16.6147C5.65092 16.4437 5.16218 16.1028 4.8095 15.6396C4.25057 15.3574 3.80295 14.8948 3.53887 14.3267C3.27479 13.7586 3.20964 13.118 3.35394 12.5082C3.49824 11.8985 3.84357 11.3552 4.33421 10.966C4.82485 10.5768 5.43219 10.3644 6.05824 10.3631C6.34548 10.364 6.63097 10.408 6.90521 10.4935V7.87426C5.72031 7.90273 4.56951 8.27686 3.59405 8.95071C2.6186 9.62457 1.86096 10.5688 1.41412 11.6676C0.967281 12.7663 0.850699 13.9718 1.07868 15.1359C1.30667 16.3 1.8693 17.3722 2.6975 18.2208C3.61397 18.8332 4.67925 19.1854 5.77986 19.2397C6.88047 19.294 7.9752 19.0485 8.94743 18.5294C9.91966 18.0102 10.733 17.2368 11.3008 16.2915C11.8685 15.3463 12.1695 14.2646 12.1716 13.1617L12.1553 6.43422Z" fill="var(--fill-0, white)"/>
<path id="Vector_3" fill-rule="evenodd" clip-rule="evenodd" d="M16.7488 5.30913V4.60813C15.8868 4.6118 15.0415 4.3706 14.3111 3.91257C14.9559 4.62407 15.8093 5.11295 16.7488 5.30913V5.30913ZM12.2099 0.80425C12.2099 0.679265 12.1719 0.548846 12.1556 0.423861V0H8.84377V13.1614C8.84089 13.8984 8.54601 14.6041 8.02383 15.1237C7.50166 15.6433 6.79485 15.9343 6.05854 15.9328C5.62499 15.935 5.19708 15.8345 4.8098 15.6394C5.16249 16.1025 5.65123 16.4435 6.20741 16.6145C6.7636 16.7854 7.3593 16.7777 7.9109 16.5925C8.4625 16.4072 8.94229 16.0538 9.28293 15.5817C9.62357 15.1096 9.80795 14.5426 9.81018 13.9603V0.80425H12.2099ZM6.90551 7.8686V7.12413C5.5427 6.93883 4.15736 7.22099 2.97527 7.92461C1.79318 8.62823 0.884049 9.71183 0.396035 10.9988C-0.0919783 12.2858 -0.130096 13.7003 0.287894 15.0117C0.705884 16.3231 1.55534 17.4542 2.69781 18.2206C1.87587 17.37 1.31923 16.2983 1.0959 15.1363C0.872572 13.9742 0.992218 12.7723 1.44022 11.6772C1.88823 10.5821 2.64519 9.64137 3.61865 8.96984C4.5921 8.29831 5.73989 7.92509 6.9218 7.89577L6.90551 7.8686Z" fill="var(--fill-0, #69C9D0)"/>
</g>
</svg>
