<svg preserveAspectRatio="none" width="100%" height="100%" overflow="visible" style="display: block;" viewBox="0 0 17.3012 18.7271" fill="none" xmlns="http://www.w3.org/2000/svg">
<g id="Group">
<path id="Vector 2" d="M4.13043 0.685604L3.26087 1.55517L1.73913 11.3378L6.30435 13.7291L6.95652 14.5986L11.3043 13.0769L16.087 9.38126L16.3043 5.903L16.087 0.902995L15.4348 0.685604H4.13043Z" fill="var(--fill-0, white)"/>
<g id="Layer_1-2">
<path id="Vector" d="M3.60442 0L0 3.34412V15.383H4.3253V18.7271L7.92972 15.383H10.8132L17.3012 9.36354V0H3.60442ZM15.8594 8.69472L12.9759 11.37H10.0924L7.56927 13.7109V11.37H4.3253V1.33765H15.8594V8.69472Z" fill="var(--fill-0, black)"/>
<path id="Vector_2" d="M13.6972 3.67854H12.2554V7.69149H13.6972V3.67854Z" fill="var(--fill-0, black)"/>
<path id="Vector_3" d="M9.73321 3.67854H8.29144V7.69149H9.73321V3.67854Z" fill="var(--fill-0, black)"/>
</g>
</g>
</svg>
