<svg preserveAspectRatio="none" width="100%" height="100%" overflow="visible" style="display: block;" viewBox="0 0 20 17.6156" fill="none" xmlns="http://www.w3.org/2000/svg">
<g id="Group 3">
<path id="Vector" d="M19.9998 8.93966C20.0028 9.14353 19.9772 9.34704 19.9232 9.54385C19.8691 9.74066 19.7873 9.92928 19.68 10.1034C19.573 10.2775 19.4416 10.436 19.29 10.574C19.1383 10.7121 18.9679 10.8281 18.7836 10.9189C18.7877 10.9732 18.7911 11.0279 18.793 11.0826C18.7975 11.1917 18.7975 11.3009 18.793 11.41C18.7911 11.4647 18.7877 11.5194 18.7836 11.5737C18.7836 14.9072 14.8649 17.6156 10.0303 17.6156C5.19573 17.6156 1.27702 14.9072 1.27702 11.5737C1.27289 11.5194 1.26951 11.4647 1.26764 11.41C1.26312 11.3009 1.26312 11.1917 1.26764 11.0826C1.26951 11.0279 1.27289 10.9732 1.27702 10.9189C0.98828 10.7874 0.731826 10.5952 0.525405 10.3557C0.318984 10.1162 0.167526 9.83517 0.0815122 9.53195C-0.00435787 9.22859 -0.0226494 8.91036 0.0279054 8.5993C0.0784602 8.28824 0.196652 7.9918 0.37429 7.73052C0.551772 7.46929 0.784473 7.24945 1.05625 7.08627C1.32802 6.92309 1.63237 6.82048 1.94816 6.78554C2.26399 6.75045 2.58374 6.78386 2.88525 6.88343C3.18677 6.983 3.46283 7.14637 3.69431 7.3622C4.12403 7.07351 4.57426 6.81601 5.04146 6.59171C5.50878 6.36774 5.99186 6.17725 6.48696 6.02249C6.98205 5.86772 7.48803 5.74904 8.00039 5.66681C8.51275 5.58459 9.03074 5.53958 9.54986 5.53176L10.6609 0.367841C10.6733 0.307942 10.6977 0.251392 10.7326 0.200794C10.7671 0.150569 10.8118 0.107412 10.8632 0.0743007C10.915 0.0411891 10.9728 0.0184945 11.0336 0.00733333C11.0941 -0.00345585 11.1564 -0.00233986 11.2164 0.0106816L14.8949 0.739881C15.2662 0.107784 16.0454 -0.163061 16.7334 0.100343C17.4214 0.363748 17.8148 1.08365 17.6609 1.79871C17.5074 2.51377 16.852 3.01231 16.1156 2.97473C15.3788 2.93715 14.7786 2.37463 14.6997 1.64766L11.4867 0.977987L10.5108 5.62105C11.0235 5.63184 11.5351 5.67946 12.0411 5.76317C13.0544 5.93058 14.0379 6.24209 14.9614 6.68807C15.4226 6.91055 15.867 7.16568 16.2913 7.45149C16.5963 7.16123 16.9795 6.96469 17.3948 6.88562C17.8101 6.80627 18.2396 6.84774 18.6316 7.00505C19.0236 7.16227 19.3614 7.42857 19.6041 7.77182C19.847 8.1151 19.9844 8.52069 19.9998 8.93966V8.93966ZM5.09964 10.9974C5.17547 11.1779 5.28582 11.3419 5.42545 11.4799C5.56471 11.6183 5.73024 11.7277 5.91229 11.8029C6.09451 11.8776 6.28977 11.916 6.48696 11.916C7.09428 11.916 7.64155 11.5532 7.87427 10.9974C8.10662 10.4412 7.97787 9.8013 7.54846 9.37569C7.11906 8.95007 6.47345 8.82246 5.91229 9.05276C5.35151 9.28342 4.98553 9.82586 4.98553 10.4278C4.98553 10.6231 5.0242 10.8166 5.09964 10.9974V10.9974ZM13.699 14.5697C13.776 14.4953 13.8199 14.3938 13.8214 14.2874C13.8229 14.1806 13.7812 14.0779 13.7062 14.0016C13.6311 13.9254 13.5286 13.8818 13.4213 13.8804C13.3136 13.8789 13.21 13.9202 13.1232 13.9845C12.8975 14.145 12.6584 14.2863 12.4086 14.4068C12.1587 14.5274 11.8991 14.6268 11.6323 14.7041C11.3658 14.7811 11.0929 14.8358 10.8171 14.8674C10.5408 14.899 10.2627 14.9072 9.98527 14.8923C9.70826 14.9046 9.4305 14.8934 9.15536 14.8592C8.88016 14.8253 8.60841 14.768 8.34309 14.6881C8.07734 14.6084 7.81947 14.5065 7.57136 14.3837C7.32325 14.261 7.08603 14.1173 6.86231 13.9548C6.78461 13.8915 6.6859 13.8591 6.5853 13.864C6.48471 13.8688 6.38974 13.9109 6.31842 13.9812C6.24748 14.0519 6.20507 14.146 6.20019 14.2457C6.19531 14.3454 6.22796 14.4433 6.29177 14.5203C6.55565 14.7174 6.83604 14.8916 7.12994 15.0411C7.42385 15.1907 7.73051 15.3146 8.04581 15.412C8.36111 15.5095 8.68429 15.5798 9.01198 15.6226C9.33966 15.665 9.67035 15.6795 10.0003 15.6661C10.3302 15.6795 10.6609 15.665 10.9886 15.6226C11.6449 15.5371 12.2815 15.3404 12.8706 15.0411C13.1645 14.8916 13.4449 14.7174 13.7088 14.5203L13.699 14.5697ZM13.4235 12.035C13.627 12.0373 13.8289 11.9982 14.017 11.9208C14.205 11.8431 14.3751 11.7285 14.5169 11.5837C14.6588 11.439 14.7692 11.2671 14.842 11.0785C14.9149 10.8901 14.9482 10.689 14.94 10.4873C14.94 9.88538 14.574 9.34295 14.0132 9.11228C13.4521 8.88199 12.8064 9.0096 12.377 9.43521C11.9476 9.86083 11.8189 10.5007 12.0512 11.0569C12.284 11.6128 12.8312 11.9755 13.4385 11.9755L13.4235 12.035Z" fill="var(--fill-0, white)"/>
</g>
</svg>
