<svg preserveAspectRatio="none" width="100%" height="100%" overflow="visible" style="display: block;" viewBox="0 0 48 48" fill="none" xmlns="http://www.w3.org/2000/svg">
<g id="google">
<g id="BG 1" opacity="0.58">
</g>
<path id="Vector" d="M43.1984 20.4H24.3984V27.8H35.3984C35.1984 29.6 33.9984 32.4 31.3984 34.2C29.7984 35.4 27.3984 36.2 24.3984 36.2C19.1984 36.2 14.5984 32.8 12.9984 27.8C12.5984 26.6 12.3984 25.2 12.3984 23.8C12.3984 22.4 12.5984 21 12.9984 19.8C13.1984 19.4 13.1984 19 13.3984 18.8C15.1984 14.6 19.3984 11.6 24.3984 11.6C28.1984 11.6 30.5984 13.2 32.1984 14.6L37.7984 9C34.3984 6 29.7984 4 24.3984 4C16.5984 4 9.79844 8.4 6.59844 15C5.19844 17.8 4.39844 20.8 4.39844 24C4.39844 27.2 5.19844 30.2 6.59844 33C9.79844 39.6 16.5984 44 24.3984 44C29.7984 44 34.3984 42.2 37.5984 39.2C41.3984 35.8 43.5984 30.6 43.5984 24.4C43.5984 22.8 43.3984 21.6 43.1984 20.4Z" stroke="var(--stroke-0, #C1B5DB)" stroke-width="3" stroke-miterlimit="10" stroke-linecap="round" stroke-linejoin="round"/>
<g id="Vector_2" opacity="0">
</g>
</g>
</svg>
