<svg preserveAspectRatio="none" width="100%" height="100%" overflow="visible" style="display: block;" viewBox="0 0 19.476 15.9379" fill="none" xmlns="http://www.w3.org/2000/svg">
<g id="Group">
<path id="Vector" d="M19.4666 3.68722C19.3799 5.48081 18.0558 7.9368 15.4946 11.0539C12.8467 14.3101 10.6063 15.9379 8.77362 15.9379C7.63874 15.9379 6.67759 14.9467 5.89309 12.9635C5.3688 11.1457 4.84508 9.32801 4.32098 7.51015C3.73806 5.52807 3.11307 4.53574 2.44484 4.53574C2.29916 4.53574 1.78927 4.82575 0.916353 5.40357L0 4.28674C0.961148 3.48769 1.90944 2.68883 2.84235 1.88886C4.12427 0.840811 5.08659 0.289662 5.72794 0.23394C7.24377 0.0961981 8.17667 1.07639 8.52686 3.17469C8.90528 5.43851 9.16704 6.84664 9.31428 7.39779C9.75113 9.27596 10.2318 10.2139 10.7571 10.2139C11.1647 10.2139 11.777 9.60478 12.5935 8.38662C13.4091 7.1681 13.846 6.24105 13.905 5.6042C14.0211 4.55266 13.584 4.0256 12.5935 4.0256C12.1272 4.0256 11.6465 4.12712 11.152 4.32775C12.1091 1.36162 13.9379 -0.0788753 16.6373 0.00332829C18.6385 0.0588663 19.5819 1.28677 19.4666 3.68722Z" fill="var(--fill-0, white)"/>
</g>
</svg>
