<svg preserveAspectRatio="none" width="100%" height="100%" overflow="visible" style="display: block;" viewBox="0 0 15.7368 15.7626" fill="none" xmlns="http://www.w3.org/2000/svg">
<g id="Icon">
<path d="M11.2017 3.71464C11.2017 3.2544 11.5748 2.8813 12.0351 2.8813C12.4953 2.8813 12.8684 3.2544 12.8684 3.71464C12.8684 4.17488 12.4953 4.54797 12.0351 4.54797C11.5748 4.54797 11.2017 4.17488 11.2017 3.71464Z" fill="var(--fill-0, #404040)"/>
<path fill-rule="evenodd" clip-rule="evenodd" d="M7.8684 3.92297C5.68227 3.92297 3.91007 5.69518 3.91007 7.8813C3.91007 10.0674 5.68227 11.8396 7.8684 11.8396C10.0545 11.8396 11.8267 10.0674 11.8267 7.8813C11.8267 5.69518 10.0545 3.92297 7.8684 3.92297ZM5.16007 7.8813C5.16007 6.38553 6.37263 5.17297 7.8684 5.17297C9.36417 5.17297 10.5767 6.38553 10.5767 7.8813C10.5767 9.37708 9.36417 10.5896 7.8684 10.5896C6.37263 10.5896 5.16007 9.37708 5.16007 7.8813Z" fill="var(--fill-0, #404040)"/>
<path fill-rule="evenodd" clip-rule="evenodd" d="M12.2503 0.242151C9.36147 -0.0807168 6.37535 -0.0807168 3.48654 0.242151C1.80983 0.429548 0.456214 1.75039 0.259086 3.43583C-0.0863621 6.38941 -0.0863621 9.37319 0.259086 12.3268C0.456214 14.0122 1.80983 15.3331 3.48654 15.5205C6.37535 15.8433 9.36147 15.8433 12.2503 15.5205C13.927 15.3331 15.2806 14.0122 15.4777 12.3268C15.8232 9.37319 15.8232 6.38941 15.4777 3.43583C15.2806 1.75039 13.927 0.429548 12.2503 0.242151ZM3.62538 1.48442C6.42192 1.17186 9.3149 1.17186 12.1114 1.48442C13.2199 1.6083 14.1078 2.48298 14.2362 3.58104C14.5704 6.43815 14.5704 9.32446 14.2362 12.1816C14.1078 13.2796 13.2199 14.1543 12.1114 14.2782C9.3149 14.5907 6.42192 14.5907 3.62538 14.2782C2.51696 14.1543 1.62905 13.2796 1.50062 12.1816C1.16646 9.32446 1.16646 6.43815 1.50062 3.58104C1.62905 2.48298 2.51696 1.6083 3.62538 1.48442Z" fill="var(--fill-0, #404040)"/>
</g>
</svg>
