<svg preserveAspectRatio="none" width="100%" height="100%" overflow="visible" style="display: block;" viewBox="0 0 16.1458 17.7083" fill="none" xmlns="http://www.w3.org/2000/svg">
<g id="Icon">
<path fill-rule="evenodd" clip-rule="evenodd" d="M0.78125 13.0208C1.21272 13.0208 1.5625 13.3706 1.5625 13.8021V15.8854C1.5625 16.0292 1.67909 16.1458 1.82292 16.1458H14.3229C14.4667 16.1458 14.5833 16.0292 14.5833 15.8854V13.8021C14.5833 13.3706 14.9331 13.0208 15.3646 13.0208C15.7961 13.0208 16.1458 13.3706 16.1458 13.8021V15.8854C16.1458 16.8922 15.3297 17.7083 14.3229 17.7083H1.82292C0.816148 17.7083 0 16.8922 0 15.8854V13.8021C0 13.3706 0.349777 13.0208 0.78125 13.0208Z" fill="#6F40DD"/>
<path d="M6.75828 0C6.22245 0 5.77548 0.409502 5.72869 0.94328C5.56865 2.76902 5.54042 4.60374 5.64414 6.43317C5.38687 6.44738 5.12969 6.46386 4.87263 6.4826L3.32106 6.5957C2.72284 6.63931 2.38842 7.30635 2.71139 7.81179C3.81767 9.54313 5.24316 11.0483 6.91185 12.247L7.53345 12.6935C7.85585 12.9251 8.29009 12.9251 8.61248 12.6935L9.23409 12.247C10.9028 11.0483 12.3283 9.54313 13.4346 7.81179C13.7575 7.30635 13.4231 6.63931 12.8249 6.5957L11.2733 6.4826C11.0162 6.46386 10.7591 6.44739 10.5018 6.43317C10.6055 4.60374 10.5773 2.76902 10.4172 0.943275C10.3705 0.4095 9.92349 0 9.38766 0H6.75828Z" fill="var(--fill-0, #6F40DD)"/>
</g>
</svg>
