<svg preserveAspectRatio="none" width="100%" height="100%" overflow="visible" style="display: block;" viewBox="0 0 48 48" fill="none" xmlns="http://www.w3.org/2000/svg">
<g id="instagram">
<path id="Vector" d="M18 44H30C40 44 44 40 44 30V18C44 8 40 4 30 4H18C8 4 4 8 4 18V30C4 40 8 44 18 44Z" stroke="var(--stroke-0, #C1B5DB)" stroke-width="3" stroke-linecap="round" stroke-linejoin="round"/>
<g id="Vector_2" opacity="0">
</g>
<path id="Vector_3" d="M24 31C27.866 31 31 27.866 31 24C31 20.134 27.866 17 24 17C20.134 17 17 20.134 17 24C17 27.866 20.134 31 24 31Z" stroke="var(--stroke-0, #C1B5DB)" stroke-width="3" stroke-linecap="round" stroke-linejoin="round"/>
<path id="Vector_4" d="M35.2722 14H35.2953" stroke="var(--stroke-0, #C1B5DB)" stroke-width="3" stroke-linecap="round" stroke-linejoin="round"/>
</g>
</svg>
