<svg preserveAspectRatio="none" width="100%" height="100%" overflow="visible" style="display: block;" viewBox="0 0 15.625 20.8029" fill="none" xmlns="http://www.w3.org/2000/svg">
<g id="Icon">
<path fill-rule="evenodd" clip-rule="evenodd" d="M3.90625 2.86458C3.90625 1.28252 5.18877 0 6.77083 0H8.85417C10.4362 0 11.7187 1.28252 11.7187 2.86458V4.94792C11.7187 5.37939 11.369 5.72917 10.9375 5.72917H4.6875C4.25603 5.72917 3.90625 5.37939 3.90625 4.94792V2.86458ZM6.77083 1.5625C6.05171 1.5625 5.46875 2.14546 5.46875 2.86458V4.16667H10.1562V2.86458C10.1562 2.14546 9.57329 1.5625 8.85417 1.5625H6.77083Z" fill="var(--fill-0, #6F40DD)"/>
<path fill-rule="evenodd" clip-rule="evenodd" d="M2.06972 2.79038C2.20141 2.72725 2.34762 2.82774 2.34735 2.97378L2.34375 4.94793C2.34375 6.24234 3.39308 7.29168 4.6875 7.29168H10.9375C12.2319 7.29168 13.2812 6.24234 13.2812 4.94793V2.97319C13.2812 2.82731 13.4274 2.72709 13.5589 2.79015C14.7934 3.38197 15.625 4.64249 15.625 6.0786V17.0051C15.625 18.7871 14.2976 20.2901 12.5292 20.5104C9.39683 20.9005 6.22817 20.9005 3.0958 20.5104C1.32741 20.2901 0 18.7871 0 17.0051V6.0786C0 4.64267 0.835012 3.38231 2.06972 2.79038ZM10.9375 10.1563C11.369 10.1563 11.7187 10.506 11.7187 10.9375C11.7187 11.369 11.369 11.7188 10.9375 11.7188H4.6875C4.25603 11.7188 3.90625 11.369 3.90625 10.9375C3.90625 10.506 4.25603 10.1563 4.6875 10.1563H10.9375ZM9.89583 13.2813C10.3273 13.2813 10.6771 13.631 10.6771 14.0625C10.6771 14.494 10.3273 14.8438 9.89583 14.8438H4.6875C4.25603 14.8438 3.90625 14.494 3.90625 14.0625C3.90625 13.631 4.25603 13.2813 4.6875 13.2813H9.89583Z" fill="var(--fill-0, #6F40DD)"/>
</g>
</svg>
