<svg preserveAspectRatio="none" width="100%" height="100%" overflow="visible" style="display: block;" viewBox="0 0 36.25 48.7501" fill="none" xmlns="http://www.w3.org/2000/svg">
<path id="Icon" fill-rule="evenodd" clip-rule="evenodd" d="M23.4095 0.14989C24.1011 0.444339 24.55 1.12337 24.55 1.87505V19.3705H34.375C35.0418 19.3705 35.6584 19.7246 35.9944 20.3005C36.3305 20.8764 36.3354 21.5874 36.0074 22.1679L34.7773 24.345C30.1119 32.6017 24.1622 40.0632 17.1514 46.4495L15.1627 48.2612C14.6138 48.7612 13.8215 48.8902 13.1423 48.5901C12.4631 48.2901 12.025 47.6175 12.025 46.875V29.5279H1.875C0.839466 29.5279 0 28.6884 0 27.6529C0 27.3175 0.0880635 27.0027 0.24233 26.7303C4.6393 18.6016 10.2688 11.203 16.9305 4.79741L21.3754 0.523485C21.9173 0.00248797 22.7179 -0.14456 23.4095 0.14989ZM5.08644 25.7779H13.9C14.9355 25.7779 15.775 26.6174 15.775 27.6529V42.6113C21.8215 36.8974 27.0042 30.3317 31.1585 23.1205H22.675C21.6395 23.1205 20.8 22.281 20.8 21.2455V6.27909L19.5297 7.50053C13.9028 12.9111 9.04454 19.0611 5.08644 25.7779Z" fill="var(--fill-0, #C1B5DB)"/>
</svg>
