<svg preserveAspectRatio="none" width="100%" height="100%" overflow="visible" style="display: block;" viewBox="0 0 17.0833 17.0833" fill="none" xmlns="http://www.w3.org/2000/svg">
<g id="Icon">
<path fill-rule="evenodd" clip-rule="evenodd" d="M2.29167 0C1.02601 0 0 1.02601 0 2.29167C0 3.55732 1.02601 4.58333 2.29167 4.58333C3.55732 4.58333 4.58333 3.55732 4.58333 2.29167C4.58333 1.02601 3.55732 0 2.29167 0ZM1.25 2.29167C1.25 1.71637 1.71637 1.25 2.29167 1.25C2.86696 1.25 3.33333 1.71637 3.33333 2.29167C3.33333 2.86696 2.86696 3.33333 2.29167 3.33333C1.71637 3.33333 1.25 2.86696 1.25 2.29167Z" fill="var(--fill-0, #404040)"/>
<path fill-rule="evenodd" clip-rule="evenodd" d="M0 5.625C0 5.27982 0.279822 5 0.625 5H3.95833C4.30351 5 4.58333 5.27982 4.58333 5.625V16.4583C4.58333 16.8035 4.30351 17.0833 3.95833 17.0833H0.625C0.279822 17.0833 0 16.8035 0 16.4583V5.625ZM1.25 6.25V15.8333H3.33333V6.25H1.25Z" fill="var(--fill-0, #404040)"/>
<path fill-rule="evenodd" clip-rule="evenodd" d="M5.83333 5.625C5.83333 5.27982 6.11316 5 6.45833 5H9.79167C10.1368 5 10.4167 5.27982 10.4167 5.625V5.98669L10.7794 5.83123C11.403 5.56397 12.0699 5.39637 12.7444 5.33506C15.0568 5.12483 17.0833 6.94198 17.0833 9.27521V16.4583C17.0833 16.8035 16.8035 17.0833 16.4583 17.0833H13.125C12.7798 17.0833 12.5 16.8035 12.5 16.4583V10.625C12.5 10.3487 12.3903 10.0838 12.1949 9.88843C11.9996 9.69308 11.7346 9.58333 11.4583 9.58333C11.1821 9.58333 10.9171 9.69308 10.7218 9.88843C10.5264 10.0838 10.4167 10.3487 10.4167 10.625V16.4583C10.4167 16.8035 10.1368 17.0833 9.79167 17.0833H6.45833C6.11316 17.0833 5.83333 16.8035 5.83333 16.4583V5.625ZM7.08333 6.25V15.8333H9.16667V10.625C9.16667 10.0172 9.40811 9.43432 9.83788 9.00455C10.2677 8.57478 10.8505 8.33333 11.4583 8.33333C12.0661 8.33333 12.649 8.57478 13.0788 9.00455C13.5086 9.43432 13.75 10.0172 13.75 10.625V15.8333H15.8333V9.27521C15.8333 7.68823 14.4492 6.43523 12.8576 6.57992C12.3125 6.62947 11.7737 6.76506 11.2718 6.98016L10.0379 7.50899C9.84477 7.59175 9.623 7.57195 9.44761 7.4563C9.27222 7.34065 9.16667 7.14461 9.16667 6.93452V6.25H7.08333Z" fill="var(--fill-0, #404040)"/>
</g>
</svg>
