<svg preserveAspectRatio="none" width="100%" height="100%" overflow="visible" style="display: block;" viewBox="0 0 17.9322 17.9463" fill="none" xmlns="http://www.w3.org/2000/svg">
<g id="Icon">
<path d="M0 5.98958C0 2.68163 2.68163 0 5.98958 0H13.2946C13.7261 0 14.0759 0.349778 14.0759 0.78125C14.0759 1.21272 13.7261 1.5625 13.2946 1.5625H5.98958C3.54457 1.5625 1.5625 3.54457 1.5625 5.98958V13.3926C1.5625 13.824 1.21272 14.1738 0.78125 14.1738C0.349777 14.1738 0 13.824 0 13.3926V5.98958Z" fill="var(--fill-0, #6F40DD)"/>
<path d="M15.7839 3.6909C12.4079 3.31358 8.94628 3.31358 5.57029 3.6909C4.60854 3.79838 3.83569 4.55526 3.72234 5.52446C3.32194 8.94787 3.32194 12.4063 3.72234 15.8297C3.83569 16.7989 4.60854 17.5558 5.57029 17.6633C8.94628 18.0406 12.4079 18.0406 15.7839 17.6633C16.7457 17.5558 17.5185 16.7989 17.6319 15.8297C18.0323 12.4063 18.0323 8.94787 17.6319 5.52446C17.5185 4.55526 16.7457 3.79838 15.7839 3.6909Z" fill="var(--fill-0, #6F40DD)"/>
</g>
</svg>
