<svg preserveAspectRatio="none" width="100%" height="100%" overflow="visible" style="display: block;" viewBox="0 0 37.4089 48.3312" fill="none" xmlns="http://www.w3.org/2000/svg">
<g id="Icon">
<path d="M14.9544 34.3069C14.9544 32.2358 16.6333 30.5569 18.7044 30.5569C20.7754 30.5569 22.4544 32.2358 22.4544 34.3069C22.4544 36.378 20.7754 38.0569 18.7044 38.0569C16.6333 38.0569 14.9544 36.378 14.9544 34.3069Z" fill="var(--fill-0, #C1B5DB)"/>
<path fill-rule="evenodd" clip-rule="evenodd" d="M7.75851 20.7998L6.9699 13.7023C6.8688 12.7924 6.8688 11.874 6.9699 10.9641L7.02682 10.4519C7.63054 5.01838 11.902 0.719237 17.3315 0.080476C18.2436 -0.0268253 19.1651 -0.0268253 20.0771 0.0804761C25.5066 0.719237 29.7781 5.01838 30.3818 10.4519L30.4387 10.9641C30.5398 11.874 30.5398 12.7924 30.4387 13.7023L29.6501 20.7998L31.3666 20.9368C34.0735 21.1529 36.2837 23.1876 36.7225 25.8674C37.6377 31.4565 37.6377 37.1573 36.7225 42.7464C36.2837 45.4262 34.0735 47.4609 31.3666 47.677L27.6263 47.9756C21.6879 48.4497 15.721 48.4497 9.78258 47.9756L6.04226 47.677C3.33544 47.4609 1.12517 45.4262 0.686385 42.7464C-0.228795 37.1573 -0.228795 31.4565 0.686385 25.8674C1.12517 23.1876 3.33544 21.1529 6.04225 20.9368L7.75851 20.7998ZM17.7697 3.80479C18.3906 3.73174 19.018 3.73174 19.639 3.80479C23.3355 4.23968 26.2437 7.16668 26.6548 10.866L26.7117 11.3782C26.7822 12.0129 26.7822 12.6535 26.7117 13.2882L25.9088 20.5143C21.1108 20.2054 16.2979 20.2054 11.4999 20.5144L10.697 13.2882C10.6264 12.6535 10.6264 12.0129 10.697 11.3782L10.7539 10.866C11.1649 7.16668 14.0731 4.23968 17.7697 3.80479ZM27.3279 24.3763C21.5881 23.9181 15.8208 23.9181 10.081 24.3763L6.34067 24.6749C5.35335 24.7537 4.54715 25.4959 4.3871 26.4733C3.53763 31.6612 3.53763 36.9526 4.3871 42.1405C4.54715 43.1179 5.35335 43.8601 6.34068 43.9389L10.081 44.2375C15.8208 44.6957 21.5881 44.6957 27.3279 44.2375L31.0682 43.9389C32.0555 43.8601 32.8617 43.1179 33.0218 42.1405C33.8713 36.9526 33.8713 31.6612 33.0218 26.4733C32.8617 25.4959 32.0555 24.7537 31.0682 24.6749L27.3279 24.3763Z" fill="var(--fill-0, #C1B5DB)"/>
</g>
</svg>
