<svg preserveAspectRatio="none" width="100%" height="100%" overflow="visible" style="display: block;" viewBox="0 0 17.9167 14.8072" fill="none" xmlns="http://www.w3.org/2000/svg">
<path id="Icon" fill-rule="evenodd" clip-rule="evenodd" d="M11.4763 0.0674583C11.8999 -0.00511032 12.3744 -0.0293403 12.8208 0.046195C13.6182 0.181097 14.3547 0.551704 14.937 1.10734C15.3175 1.11594 15.6916 1.04097 16.0225 0.934082C16.3026 0.843623 16.5392 0.734396 16.705 0.648032C16.7874 0.60509 16.8511 0.568458 16.8925 0.543658C16.9132 0.531278 16.9282 0.521907 16.9371 0.516248L16.945 0.511197C17.1924 0.346424 17.5217 0.378493 17.7325 0.588081C17.9432 0.797718 17.9772 1.12682 17.8136 1.37507C17.6405 1.63782 17.4003 2.10621 17.131 2.63101C17.0887 2.71352 17.0457 2.79743 17.0021 2.88216C16.8476 3.18213 16.6893 3.48531 16.5418 3.74542C16.4491 3.90874 16.35 4.07455 16.2501 4.21784V4.44598C16.2564 5.28401 16.1603 6.11766 15.9652 6.92868C15.8425 7.43896 15.6806 7.94029 15.4804 8.42811C14.9617 9.69199 14.1964 10.8399 13.2291 11.8047C12.2618 12.7694 11.112 13.5318 9.8468 14.0473C8.58271 14.5623 7.22875 14.8204 5.86388 14.8067C3.88528 14.8084 1.94831 14.2384 0.286046 13.1651C0.0412118 13.007 -0.0618706 12.7007 0.0375763 12.4268C0.137023 12.1529 0.412601 11.984 0.701828 12.0198C0.952128 12.0508 1.20414 12.0659 1.45635 12.0651C2.36256 12.0625 3.2515 11.8623 4.06305 11.4851C3.8051 11.3677 3.55882 11.2229 3.32869 11.0522C2.65226 10.5506 2.149 9.85069 1.88894 9.04974C1.82137 8.84161 1.86757 8.61329 2.01074 8.4478C2.01331 8.44483 2.0159 8.4419 2.01851 8.43899C1.86557 8.30262 1.72246 8.15413 1.59072 7.99444C0.997952 7.27594 0.671555 6.37474 0.666738 5.44329L0.666721 5.44006L0.666729 5.3984C0.666729 5.17684 0.784023 4.97185 0.975026 4.85958C1.02344 4.83112 1.07476 4.8097 1.12755 4.79533C0.845611 4.23276 0.698991 3.61156 0.700062 2.98134C0.699729 2.26737 0.886226 1.56573 1.24103 0.946145C1.34345 0.767281 1.52748 0.650417 1.73292 0.63377C1.93836 0.617123 2.1388 0.702835 2.26868 0.862874C3.07081 1.85122 4.07189 2.65976 5.20687 3.23599C5.79032 3.5322 6.40245 3.76361 7.03228 3.92731C7.38539 4.01908 7.74407 4.08957 8.10638 4.13826C8.09042 3.53555 8.20944 2.93316 8.45921 2.37655C8.82561 1.56003 9.45267 0.888211 10.242 0.466468C10.5763 0.28786 11.0201 0.145601 11.4763 0.0674583ZM2.07779 6.35704C2.18583 6.66111 2.34655 6.94638 2.55493 7.19896C2.96437 7.69525 3.53266 8.03488 4.16367 8.16041C4.44474 8.21632 4.65177 8.45623 4.66596 8.74245C4.68015 9.02868 4.49786 9.28789 4.22369 9.37132C3.99661 9.44043 3.76397 9.48858 3.52867 9.51532C3.68415 9.71574 3.86705 9.89528 4.07323 10.0482C4.54088 10.3949 5.105 10.5873 5.68709 10.5985C5.95119 10.6036 6.18358 10.7742 6.2676 11.0246C6.35162 11.275 6.26914 11.5512 6.06155 11.7146C5.18724 12.4025 4.17624 12.8822 3.10495 13.1271C3.99285 13.4115 4.92406 13.5579 5.86597 13.5567L5.87322 13.5567C7.07327 13.5692 8.26377 13.3424 9.37519 12.8897C10.4866 12.4369 11.4967 11.7672 12.3464 10.9196C13.1961 10.0721 13.8684 9.06378 14.324 7.95353C14.4998 7.52501 14.6421 7.08462 14.7499 6.63636C14.9214 5.92323 15.0058 5.19017 15.0001 4.45328L15.0001 4.44839V4.00673C15.0001 3.85518 15.0551 3.7088 15.155 3.59483C15.2127 3.52896 15.3137 3.37683 15.4546 3.12858C15.5884 2.89264 15.7366 2.60938 15.8907 2.31006C15.9 2.29196 15.9093 2.27376 15.9187 2.25548C15.5191 2.34227 15.0661 2.38776 14.5912 2.33644C14.4409 2.32019 14.3015 2.24995 14.1989 2.13875C13.7799 1.6843 13.2218 1.3818 12.6123 1.27868C12.3419 1.23293 12.0149 1.2434 11.6873 1.29951C11.3314 1.36048 11.0216 1.46716 10.8311 1.56897C10.2859 1.86028 9.85273 2.32432 9.59965 2.8883C9.34656 3.45229 9.28783 4.08433 9.43267 4.6853C9.47884 4.87689 9.43194 5.07904 9.30613 5.23073C9.18031 5.38242 8.99032 5.46589 8.79349 5.45593C8.09064 5.42038 7.39524 5.31317 6.71785 5.13712C6.00126 4.95087 5.30482 4.68758 4.64101 4.35057C3.66369 3.8544 2.77365 3.20682 2.00295 2.43374C1.96779 2.61342 1.94994 2.79678 1.95006 2.98132L1.95006 2.98291C1.94919 3.44185 2.06181 3.89387 2.27791 4.29875C2.494 4.70362 2.80685 5.04878 3.18861 5.30349C3.4203 5.45808 3.52174 5.74731 3.43736 6.01274C3.35298 6.27817 3.10315 6.45574 2.82473 6.44816C2.57257 6.4413 2.32252 6.41063 2.07779 6.35704Z" fill="var(--fill-0, #404040)"/>
</svg>
