<svg preserveAspectRatio="none" width="100%" height="100%" overflow="visible" style="display: block;" viewBox="0 0 9.5 16.25" fill="none" xmlns="http://www.w3.org/2000/svg">
<path id="Icon" fill-rule="evenodd" clip-rule="evenodd" d="M3.53141 1.28141C4.35188 0.460936 5.46468 0 6.625 0H8.875C9.22018 0 9.5 0.279822 9.5 0.625V3.625C9.5 3.97018 9.22018 4.25 8.875 4.25H6.625C6.59185 4.25 6.56005 4.26317 6.53661 4.28661C6.51317 4.31005 6.5 4.34185 6.5 4.375V6H8.875C9.06746 6 9.24919 6.08867 9.36763 6.24037C9.48607 6.39206 9.52802 6.58987 9.48134 6.77658L8.73134 9.77658C8.66178 10.0548 8.41179 10.25 8.125 10.25H6.5V15.625C6.5 15.9702 6.22018 16.25 5.875 16.25H2.875C2.52982 16.25 2.25 15.9702 2.25 15.625V10.25H0.625C0.279822 10.25 0 9.97018 0 9.625V6.625C0 6.27982 0.279822 6 0.625 6H2.25V4.375C2.25 3.21468 2.71094 2.10188 3.53141 1.28141ZM6.625 1.25C5.7962 1.25 5.00134 1.57924 4.41529 2.16529C3.82924 2.75134 3.5 3.5462 3.5 4.375V6.625C3.5 6.97018 3.22018 7.25 2.875 7.25H1.25V9H2.875C3.22018 9 3.5 9.27982 3.5 9.625V15H5.25V9.625C5.25 9.27982 5.52982 9 5.875 9H7.63702L8.07451 7.25H5.875C5.52982 7.25 5.25 6.97018 5.25 6.625V4.375C5.25 4.01033 5.39487 3.66059 5.65273 3.40273C5.91059 3.14487 6.26033 3 6.625 3H8.25V1.25H6.625Z" fill="var(--fill-0, #404040)"/>
</svg>
