<svg preserveAspectRatio="none" width="100%" height="100%" overflow="visible" style="display: block;" viewBox="0 0 24.3172 13.5473" fill="none" xmlns="http://www.w3.org/2000/svg">
<path id="path4" fill-rule="evenodd" clip-rule="evenodd" d="M23.7592 0.917331C23.9282 0.388551 23.7592 0 22.9547 0H20.2944C19.618 0 19.3061 0.33565 19.137 0.705776C19.137 0.705776 17.7841 3.7991 15.8676 5.80842C15.2476 6.39006 14.9657 6.57512 14.6275 6.57512C14.4584 6.57512 14.2136 6.39005 14.2136 5.86132V0.917333C14.2136 0.282796 14.0173 0 13.4536 0H9.27309C8.85039 0 8.59616 0.294503 8.59616 0.573614C8.59616 1.17514 9.55437 1.31386 9.65314 3.00596V6.68092C9.65314 7.48664 9.49802 7.63272 9.15981 7.63272C8.25795 7.63272 6.06417 4.52557 4.76306 0.970187C4.50808 0.279145 4.25233 0 3.57243 0H0.912115C0.152026 0 0 0.33565 0 0.705776C0 1.36676 0.901904 4.64515 4.19942 8.98106C6.39774 11.9421 9.49504 13.5473 12.3134 13.5473C14.0045 13.5473 14.2137 13.1907 14.2137 12.5767V10.3387C14.2137 9.62568 14.3739 9.48338 14.9094 9.48338C15.3039 9.48338 15.9804 9.66845 17.5587 11.0961C19.3625 12.7882 19.6598 13.5473 20.6744 13.5473H23.3347C24.0948 13.5473 24.4749 13.1907 24.2556 12.4872C24.0157 11.786 23.1545 10.7687 22.0118 9.56269C21.3917 8.8753 20.4616 8.13505 20.1798 7.76484C19.7852 7.289 19.898 7.07745 20.1798 6.65447C20.1798 6.65447 23.421 2.37142 23.7592 0.917331Z" fill="var(--fill-0, white)"/>
</svg>
