<svg preserveAspectRatio="none" width="100%" height="100%" overflow="visible" style="display: block;" viewBox="0 0 20.822 19.1917" fill="none" xmlns="http://www.w3.org/2000/svg">
<path id="Vector" d="M10.4018 1.0641C13.1963 1.06499 15.5242 3.29237 15.5276 5.97428C15.5284 6.60244 15.5486 7.18089 15.5856 7.71375C15.6085 8.04251 15.8941 8.28615 16.2216 8.28615C16.2699 8.28615 16.319 8.28087 16.3683 8.2698L17.2438 8.07333C17.281 8.06494 17.3184 8.06094 17.3554 8.06094C17.5777 8.06094 17.7824 8.20638 17.8324 8.4218C17.9029 8.72622 17.7248 9.03378 17.4167 9.13722L16.0878 9.65079C15.7523 9.78044 15.5721 10.13 15.6666 10.4644C16.7327 14.2379 19.7106 13.8454 19.7106 14.337C19.7106 14.9544 17.466 15.0416 17.2632 15.2357C17.0605 15.4299 17.2544 16.3722 16.8014 16.5547C16.716 16.5891 16.5946 16.601 16.4466 16.601C16.1054 16.601 15.6227 16.5373 15.114 16.5373C14.6727 16.5373 14.2119 16.5852 13.8067 16.7644C12.7319 17.2398 11.6956 18.1277 10.411 18.1277C9.12641 18.1277 8.09016 17.2398 7.01531 16.7644C6.61006 16.5852 6.14933 16.5373 5.70803 16.5373C5.19937 16.5373 4.71663 16.601 4.37541 16.601C4.22749 16.601 4.10603 16.589 4.02067 16.5547C3.56759 16.3722 3.76156 15.4299 3.55878 15.2357C3.356 15.0416 1.11148 14.9544 1.11148 14.337C1.11148 13.8453 4.08932 14.2378 5.15545 10.4644C5.24992 10.13 5.06973 9.78044 4.7342 9.65075L3.40531 9.13717C3.09716 9.03374 2.91901 8.72617 2.98962 8.42176C3.03954 8.2063 3.24428 8.06086 3.46662 8.0609C3.50352 8.0609 3.54095 8.0649 3.57821 8.07329L4.45366 8.26976C4.50301 8.28083 4.55214 8.28611 4.60037 8.28611C4.92786 8.28611 5.21351 8.04243 5.23636 7.71371C5.2734 7.18085 5.29367 6.6024 5.29447 5.97424C5.29785 3.29237 7.60715 1.06504 10.4018 1.0641ZM10.4021 0H10.4013C9.56718 0.000255384 8.7546 0.160722 7.98626 0.476972C7.24872 0.780496 6.58494 1.21329 6.01338 1.76334C5.44256 2.31267 4.99335 2.95041 4.67822 3.65884C4.35056 4.3955 4.18392 5.17408 4.1829 5.97296C4.18241 6.36519 4.17392 6.74584 4.15756 7.11036L3.83185 7.03724C3.71235 7.01042 3.58946 6.9968 3.46671 6.99676C3.11223 6.99671 2.76256 7.11142 2.48211 7.31973C2.18953 7.53706 1.98435 7.84655 1.90446 8.19119C1.7143 9.01152 2.18744 9.83969 3.00736 10.1309L3.98266 10.5078C3.33684 12.4056 2.146 12.7692 1.34409 13.0142C1.13131 13.0792 0.947515 13.1353 0.772523 13.2185C0.0752695 13.5498 0 14.1111 0 14.337C0 14.7698 0.213938 15.1647 0.602467 15.4489C0.795909 15.5905 1.03554 15.7073 1.33502 15.806C1.7432 15.9406 2.21638 16.0259 2.60095 16.0944C2.61954 16.2308 2.64679 16.3774 2.69272 16.525C2.8834 17.1384 3.2858 17.4131 3.58982 17.5355C3.87827 17.6516 4.17632 17.665 4.37541 17.665C4.57014 17.665 4.77599 17.6504 4.99393 17.635C5.22774 17.6184 5.46951 17.6013 5.70803 17.6013C6.07766 17.6013 6.35282 17.6435 6.5492 17.7303C6.81884 17.8496 7.10481 18.0104 7.40757 18.1806C8.25043 18.6545 9.20573 19.1917 10.411 19.1917C11.6163 19.1917 12.5716 18.6545 13.4144 18.1806C13.7172 18.0104 14.0031 17.8496 14.2728 17.7303C14.4692 17.6435 14.7444 17.6013 15.114 17.6013C15.3525 17.6013 15.5943 17.6184 15.8281 17.635C16.046 17.6504 16.2518 17.665 16.4466 17.665C16.6457 17.665 16.9437 17.6516 17.2322 17.5355C17.5362 17.4131 17.9386 17.1384 18.1293 16.525C18.1752 16.3774 18.2025 16.2308 18.221 16.0944C18.6056 16.0259 19.0788 15.9406 19.487 15.806C19.7865 15.7073 20.0261 15.5905 20.2195 15.4489C20.608 15.1647 20.822 14.7698 20.822 14.337C20.822 14.1111 20.7467 13.5498 20.0494 13.2185C19.8744 13.1354 19.6906 13.0792 19.4778 13.0142C18.6759 12.7693 17.4851 12.4056 16.8392 10.5079L17.8145 10.131C18.6344 9.83973 19.1076 9.01152 18.9174 8.19119C18.8376 7.84655 18.6324 7.53706 18.3398 7.31973C18.0593 7.11147 17.7098 6.99676 17.3554 6.99676C17.2326 6.99676 17.1097 7.01038 16.9901 7.03719L16.6644 7.11032C16.648 6.74584 16.6395 6.36519 16.639 5.97292C16.638 5.1734 16.4701 4.39405 16.1398 3.65642C15.8227 2.94832 15.3711 2.31076 14.7974 1.76138C14.2237 1.21205 13.5581 0.77973 12.819 0.476461C12.0492 0.160594 11.236 0.000297948 10.4021 0Z" fill="var(--fill-0, #050505)"/>
</svg>
