<svg preserveAspectRatio="none" width="100%" height="100%" overflow="visible" style="display: block;" viewBox="0 0 27.6302 12.0107" fill="none" xmlns="http://www.w3.org/2000/svg">
<path id="Vector" d="M0.312632 7.1845C0.255195 7.1845 0.209391 7.22889 0.202121 7.29292L0 8.8291L0.202121 10.3383C0.202848 10.4017 0.255195 10.446 0.312632 10.446C0.368616 10.446 0.413693 10.4024 0.423144 10.3383L0.662345 8.82837L0.423144 7.2922C0.41442 7.22889 0.368616 7.1845 0.312632 7.1845V7.1845ZM1.44902 6.34546C1.43956 6.27924 1.39231 6.23412 1.33414 6.23412C1.27598 6.23412 1.22726 6.28142 1.21927 6.34546C1.21927 6.34553 0.947349 8.8291 0.947349 8.8291L1.21927 11.2574C1.22726 11.3229 1.27525 11.3695 1.33414 11.3695C1.39231 11.3695 1.43956 11.3236 1.44902 11.2582L1.75801 8.8291L1.44902 6.34546ZM5.72845 4.05467C5.61721 4.05467 5.52487 4.14563 5.51978 4.26206L5.30312 8.83128L5.51978 11.7843C5.5256 11.9 5.61721 11.9909 5.72845 11.9909C5.83896 11.9909 5.93129 11.9 5.93784 11.7843V11.7844L6.18213 8.83135L5.93784 4.26213C5.93129 4.14643 5.83969 4.05474 5.72845 4.05474V4.05467ZM3.51312 5.64258C3.42733 5.64258 3.35753 5.71098 3.35099 5.80194L3.10742 8.82917L3.35099 11.7545C3.35753 11.8455 3.42733 11.9139 3.51312 11.9139C3.59746 11.9139 3.66798 11.8455 3.67525 11.7545L3.95226 8.82917L3.67525 5.80121C3.67452 5.71025 3.59818 5.64185 3.51312 5.64185V5.64258ZM7.9794 11.9888C8.11754 11.9888 8.23023 11.8775 8.23532 11.7349L8.44762 8.83208L8.23605 2.74925C8.23023 2.60662 8.11827 2.49528 7.98013 2.49528C7.84053 2.49528 7.72784 2.60735 7.72348 2.74997L7.53517 8.83208L7.72348 11.7363C7.72784 11.8782 7.84054 11.9896 7.9794 11.9896V11.9888ZM12.5875 12.0027C12.7779 12.0027 12.9343 11.8462 12.9379 11.6534V11.6556V11.6534L13.0862 8.83354L12.9379 1.80833C12.9343 1.61622 12.7772 1.45904 12.5875 1.45904C12.397 1.45904 12.2399 1.61549 12.237 1.80906L12.1047 8.83208C12.1047 8.83645 12.237 11.6563 12.237 11.6563C12.2399 11.8469 12.3977 12.0041 12.5875 12.0041V12.0027ZM10.266 11.9932C10.4318 11.9932 10.5648 11.86 10.5692 11.6905V11.6927L10.7495 8.83354L10.5692 2.70631C10.5648 2.53676 10.431 2.40432 10.266 2.40432C10.0995 2.40432 9.96571 2.53676 9.96207 2.70631L9.80212 8.83354L9.9628 11.6919C9.96644 11.8593 10.0995 11.9925 10.2667 11.9925L10.266 11.9932ZM4.61751 11.9655C4.71566 11.9655 4.79564 11.887 4.80291 11.7829L5.06392 8.8299L4.80291 6.02025C4.80218 5.91619 4.71639 5.83833 4.61751 5.83833C4.5179 5.83833 4.43793 5.91692 4.43211 6.02171L4.20236 8.8299L4.43211 11.7829C4.43866 11.887 4.5179 11.9655 4.61751 11.9655V11.9655ZM2.42181 11.804C2.49379 11.804 2.55195 11.7472 2.55995 11.6687L2.85295 8.82917L2.55995 5.88272C2.55123 5.80412 2.49306 5.74736 2.42109 5.74736C2.34838 5.74736 2.29022 5.80412 2.28295 5.88272L2.02484 8.82917L2.28295 11.6679C2.28367 11.7465 2.34838 11.804 2.42109 11.804H2.42181ZM11.4242 2.60371C11.2446 2.60371 11.1006 2.74706 11.097 2.92972L10.9509 8.83281L11.097 11.6737C11.1006 11.8542 11.2446 11.9976 11.4242 11.9976C11.6038 11.9976 11.747 11.8549 11.7514 11.6716V11.6737L11.9157 8.83281L11.7514 2.92826C11.747 2.74561 11.6038 2.60298 11.4242 2.60298V2.60371ZM6.85174 11.9947C6.97607 11.9947 7.07858 11.8935 7.0844 11.764L7.31269 8.83135L7.0844 3.21716C7.07786 3.08763 6.97607 2.98648 6.85174 2.98648C6.72669 2.98648 6.62418 3.08763 6.61909 3.21716L6.41697 8.83135L6.61909 11.764C6.62418 11.8921 6.72669 11.9932 6.85174 11.9932V11.9947ZM9.40006 11.7167V11.7152L9.59637 8.83062L9.40006 2.54258C9.3957 2.38612 9.2721 2.26387 9.12015 2.26387C8.96747 2.26387 8.84459 2.38612 8.84023 2.54258L8.66647 8.8299L8.84096 11.7159C8.84532 11.8709 8.96819 11.9925 9.12087 11.9925C9.27283 11.9925 9.3957 11.8702 9.40079 11.7145L9.40006 11.7167ZM24.2319 5.20596C23.7666 5.20596 23.3224 5.30056 22.9174 5.47011C22.647 2.40432 20.079 0 16.9461 0C16.1798 0 15.4324 0.151361 14.7723 0.406783C14.5156 0.50575 14.4473 0.608356 14.4451 0.807018V11.6024C14.448 11.8106 14.6094 11.9837 14.8122 12.0048C14.821 12.0049 24.1716 12.0107 24.2319 12.0107C26.1085 12.0107 27.6302 10.4876 27.6302 8.6094C27.6302 6.73049 26.1092 5.20741 24.2319 5.20741V5.20596ZM13.75 0.797558C13.5457 0.797558 13.3785 0.964928 13.3756 1.17159L13.2222 8.83354L13.3756 11.6141C13.3785 11.8171 13.5457 11.9845 13.75 11.9845C13.9536 11.9845 14.1208 11.8171 14.1245 11.6112V11.6148L14.2909 8.83354L14.1245 1.17087C14.1215 0.965656 13.9536 0.797558 13.75 0.797558" fill="var(--fill-0, white)"/>
</svg>
