<svg preserveAspectRatio="none" width="100%" height="100%" overflow="visible" style="display: block;" viewBox="0 0 13.68 9.6" fill="none" xmlns="http://www.w3.org/2000/svg">
<g id="Vector">
<path d="M13.3949 1.49891C13.2382 0.909818 12.7747 0.445091 12.1849 0.285818C11.1185 1.04037e-07 6.84 0 6.84 0C6.84 0 2.56364 1.04037e-07 1.49509 0.285818C0.907502 0.442909 0.443958 0.907636 0.285091 1.49891C0 2.568 0 4.8 0 4.8C0 4.8 0 7.032 0.285091 8.10109C0.441782 8.69018 0.905326 9.15491 1.49509 9.31418C2.56364 9.6 6.84 9.6 6.84 9.6C6.84 9.6 11.1185 9.6 12.1849 9.31418C12.7725 9.15709 13.236 8.69236 13.3949 8.10109C13.68 7.032 13.68 4.8 13.68 4.8C13.68 4.8 13.68 2.568 13.3949 1.49891Z" fill="white"/>
<path d="M5.47331 6.85746L9.02715 4.8L5.47331 2.74255V6.85746Z" fill="var(--fill-0, #FF0000)"/>
</g>
</svg>
