<svg preserveAspectRatio="none" width="100%" height="100%" overflow="visible" style="display: block;" viewBox="0 0 18.4 15.6139" fill="none" xmlns="http://www.w3.org/2000/svg">
<path id="Vector" d="M1.12807 6.79988C1.12807 6.79988 9.26595 3.37234 12.0883 2.16542C13.1702 1.68269 16.8393 0.13783 16.8393 0.13783C16.8393 0.13783 18.5328 -0.537989 18.3916 1.10335C18.3446 1.77924 17.9683 4.1447 17.592 6.70333C17.0275 10.324 16.416 14.2826 16.416 14.2826C16.416 14.2826 16.3219 15.393 15.5222 15.5861C14.7226 15.7791 13.4054 14.9102 13.1702 14.7171C12.982 14.5723 9.64225 12.3999 8.41922 11.3378C8.08993 11.0481 7.71364 10.4689 8.46623 9.79299C10.1597 8.19989 12.1824 6.2206 13.4054 4.96544C13.9699 4.3861 14.5344 3.0344 12.1824 4.67574C8.84259 7.04127 5.54981 9.26195 5.54981 9.26195C5.54981 9.26195 4.79715 9.74468 3.38598 9.31019C1.97474 8.87577 0.328347 8.29643 0.328347 8.29643C0.328347 8.29643 -0.80054 7.57231 1.12807 6.79988Z" fill="var(--fill-0, white)"/>
</svg>
