<svg preserveAspectRatio="none" width="100%" height="100%" overflow="visible" style="display: block;" viewBox="0 0 19.7727 18.2609" fill="none" xmlns="http://www.w3.org/2000/svg">
<path id="Vector 1" d="M6.59091 0.652174L9.54545 0H10.6818L13.8636 1.52174L15.4545 4.78261V7.17391L17.5 6.95652V7.6087V8.69565L16.1364 9.13043L15.6818 9.78261L16.8182 11.9565L19.7727 13.4783L19.0909 14.3478L17.0455 15L16.5909 15.8696L16.1364 16.5217H13.6364L12.5 16.9565L10 18.2609L8.40909 17.8261L6.59091 16.9565L5.22727 16.5217H3.40909L2.72727 16.087L2.04545 15L0.909091 14.7826L0 14.1304V13.4783L1.13636 12.8261L3.18182 11.3043L3.63636 9.78261L1.81818 8.69565L2.04545 7.6087L2.72727 6.95652L4.09091 7.17391L4.77273 3.26087L6.59091 0.652174Z" fill="var(--fill-0, white)"/>
</svg>
