<svg preserveAspectRatio="none" width="100%" height="100%" overflow="visible" style="display: block;" viewBox="0 0 15.2 20.0178" fill="none" xmlns="http://www.w3.org/2000/svg">
<path id="Vector" d="M6.62229 0.0669436C3.37571 0.438286 0.140578 3.12954 0.00705211 6.9739C-0.0768783 9.32118 0.573582 11.0821 2.75386 11.5766C3.69999 9.86646 2.44866 9.48926 2.2541 8.2521C1.45485 3.18231 7.96136 -0.275082 11.3663 3.26439C13.722 5.71525 12.1712 13.2554 8.37148 12.4717C4.73195 11.7232 10.1531 5.72111 7.24795 4.54259C4.88646 3.58492 3.63132 7.47228 4.75103 9.40326C4.09484 12.7238 2.68138 15.8529 3.25363 20.0178C5.10964 18.6379 5.7353 15.9956 6.24842 13.2398C7.18119 13.8203 7.67905 14.4242 8.86934 14.518C13.2585 14.8659 15.7097 10.0287 15.1107 5.56671C14.5785 1.61094 10.7253 -0.40212 6.62229 0.0669436Z" fill="var(--fill-0, white)"/>
</svg>
