<svg width="24" height="24" viewBox="0 0 24 24" fill="none" xmlns="http://www.w3.org/2000/svg">
<rect width="24" height="24" rx="12" fill="#FF4500"/>
<path d="M17.9999 12.1099C18.0017 12.2322 17.9863 12.3543 17.9539 12.4724C17.9215 12.5905 17.8724 12.7037 17.808 12.8081C17.7438 12.9126 17.665 13.0077 17.574 13.0905C17.483 13.1733 17.3807 13.243 17.2702 13.2974C17.2726 13.33 17.2747 13.3628 17.2758 13.3957C17.2785 13.4611 17.2785 13.5266 17.2758 13.5921C17.2747 13.6249 17.2726 13.6577 17.2702 13.6903C17.2702 15.6904 14.9189 17.3155 12.0182 17.3155C9.11744 17.3155 6.76621 15.6904 6.76621 13.6903C6.76373 13.6577 6.76171 13.6249 6.76058 13.5921C6.75787 13.5266 6.75787 13.4611 6.76058 13.3957C6.76171 13.3628 6.76373 13.33 6.76621 13.2974C6.59297 13.2185 6.4391 13.1032 6.31524 12.9595C6.19139 12.8158 6.10052 12.6472 6.04891 12.4653C5.99739 12.2832 5.98641 12.0923 6.01674 11.9057C6.04708 11.719 6.11799 11.5412 6.22457 11.3844C6.33106 11.2277 6.47068 11.0958 6.63375 10.9979C6.79681 10.8999 6.97942 10.8384 7.16889 10.8174C7.35839 10.7964 7.55024 10.8164 7.73115 10.8762C7.91206 10.9359 8.0777 11.0339 8.21659 11.1634C8.47442 10.9902 8.74455 10.8357 9.02488 10.7011C9.30527 10.5667 9.59512 10.4524 9.89217 10.3596C10.1892 10.2667 10.4928 10.1955 10.8002 10.1462C11.1077 10.0969 11.4184 10.0698 11.7299 10.0652L12.3965 6.9668C12.404 6.93086 12.4186 6.89693 12.4396 6.86657C12.4603 6.83644 12.4871 6.81054 12.5179 6.79067C12.549 6.77081 12.5837 6.75719 12.6202 6.75049C12.6564 6.74402 12.6938 6.74469 12.7299 6.7525L14.937 7.19002C15.1597 6.81076 15.6272 6.64826 16.0401 6.8063C16.4529 6.96434 16.6889 7.39628 16.5966 7.82532C16.5044 8.25436 16.1112 8.55348 15.6693 8.53093C15.2273 8.50839 14.8671 8.17087 14.8198 7.73469L12.892 7.33289L12.3065 10.1187C12.6141 10.1252 12.9211 10.1538 13.2247 10.204C13.8326 10.3044 14.4227 10.4913 14.9768 10.7589C15.2536 10.8924 15.5202 11.0455 15.7747 11.217C15.9578 11.0428 16.1877 10.9249 16.4369 10.8775C16.686 10.8299 16.9438 10.8547 17.179 10.9491C17.4142 11.0435 17.6168 11.2032 17.7625 11.4092C17.9082 11.6152 17.9906 11.8585 17.9999 12.1099V12.1099ZM9.05979 13.3445C9.10528 13.4528 9.17149 13.5512 9.25527 13.6341C9.33883 13.7171 9.43814 13.7827 9.54737 13.8278C9.6567 13.8726 9.77386 13.8957 9.89217 13.8957C10.2566 13.8957 10.5849 13.678 10.7246 13.3445C10.864 13.0108 10.7867 12.6269 10.5291 12.3715C10.2714 12.1161 9.88407 12.0396 9.54737 12.1777C9.2109 12.3161 8.99132 12.6416 8.99132 13.0028C8.99132 13.12 9.01452 13.2361 9.05979 13.3445V13.3445ZM14.2194 15.4879C14.2656 15.4433 14.2919 15.3824 14.2928 15.3185C14.2937 15.2544 14.2687 15.1928 14.2237 15.1471C14.1787 15.1013 14.1172 15.0752 14.0528 15.0743C13.9881 15.0734 13.926 15.0982 13.8739 15.1368C13.7385 15.2331 13.595 15.3179 13.4451 15.3902C13.2952 15.4625 13.1394 15.5222 12.9794 15.5685C12.8195 15.6147 12.6558 15.6475 12.4902 15.6665C12.3245 15.6855 12.1576 15.6904 11.9912 15.6815C11.825 15.6888 11.6583 15.6821 11.4932 15.6616C11.3281 15.6413 11.165 15.6069 11.0059 15.5589C10.8464 15.5112 10.6917 15.45 10.5428 15.3763C10.394 15.3027 10.2516 15.2165 10.1174 15.119C10.0708 15.081 10.0115 15.0616 9.95118 15.0645C9.89082 15.0674 9.83384 15.0926 9.79105 15.1348C9.74849 15.1772 9.72304 15.2337 9.72011 15.2935C9.71718 15.3533 9.73678 15.412 9.77506 15.4583C9.93339 15.5766 10.1016 15.681 10.278 15.7708C10.4543 15.8605 10.6383 15.9348 10.8275 15.9933C11.0167 16.0518 11.2106 16.094 11.4072 16.1197C11.6038 16.1451 11.8022 16.1538 12.0002 16.1458C12.1981 16.1538 12.3965 16.1451 12.5932 16.1197C12.9869 16.0683 13.3689 15.9503 13.7224 15.7708C13.8987 15.681 14.067 15.5766 14.2253 15.4583L14.2194 15.4879ZM14.0541 13.9671C14.1762 13.9685 14.2973 13.945 14.4102 13.8986C14.523 13.8519 14.625 13.7832 14.7102 13.6963C14.7953 13.6095 14.8615 13.5064 14.9052 13.3932C14.9489 13.2802 14.9689 13.1595 14.964 13.0385C14.964 12.6773 14.7444 12.3519 14.4079 12.2135C14.0712 12.0753 13.6839 12.1519 13.4262 12.4072C13.1686 12.6626 13.0913 13.0465 13.2307 13.3803C13.3704 13.7138 13.6987 13.9314 14.0631 13.9314L14.0541 13.9671Z" fill="white"/>
</svg>
