<svg width="24" height="24" viewBox="0 0 24 24" fill="none" xmlns="http://www.w3.org/2000/svg">
<rect width="24" height="24" rx="12" fill="url(#paint0_linear_10_259)"/>
<path d="M3.78768 12.8515C3.75321 12.8515 3.72573 12.8781 3.72137 12.9165L3.6001 13.8382L3.72137 14.7438C3.72181 14.7818 3.75321 14.8084 3.78768 14.8084C3.82127 14.8084 3.84831 14.7822 3.85398 14.7438L3.9975 13.8378L3.85398 12.9161C3.84875 12.8781 3.82127 12.8515 3.78768 12.8515V12.8515ZM4.46951 12.348C4.46384 12.3083 4.43548 12.2812 4.40058 12.2812C4.36568 12.2812 4.33646 12.3096 4.33166 12.348C4.33166 12.3481 4.16851 13.8382 4.16851 13.8382L4.33166 15.2952C4.33646 15.3345 4.36525 15.3625 4.40058 15.3625C4.43548 15.3625 4.46384 15.335 4.46951 15.2957L4.65491 13.8382L4.46951 12.348ZM7.03717 10.9736C6.97042 10.9736 6.91502 11.0281 6.91197 11.098L6.78197 13.8395L6.91197 15.6113C6.91546 15.6808 6.97042 15.7353 7.03717 15.7353C7.10347 15.7353 7.15887 15.6808 7.1628 15.6113V15.6114L7.30937 13.8396L7.1628 11.0981C7.15887 11.0286 7.10391 10.9736 7.03717 10.9736V10.9736ZM5.70797 11.9263C5.65649 11.9263 5.61461 11.9674 5.61069 12.0219L5.46455 13.8383L5.61069 15.5935C5.61461 15.6481 5.65649 15.6891 5.70797 15.6891C5.75857 15.6891 5.80089 15.6481 5.80525 15.5935L5.97145 13.8383L5.80525 12.0215C5.80481 11.9669 5.75901 11.9259 5.70797 11.9259V11.9263ZM8.38774 15.7341C8.47062 15.7341 8.53824 15.6673 8.54129 15.5817L8.66867 13.84L8.54173 10.1903C8.53824 10.1047 8.47106 10.0379 8.38817 10.0379C8.30442 10.0379 8.2368 10.1052 8.23419 10.1908L8.1212 13.84L8.23419 15.5826C8.2368 15.6677 8.30442 15.7345 8.38774 15.7345V15.7341ZM11.1526 15.7424C11.2669 15.7424 11.3607 15.6485 11.3628 15.5328V15.5341V15.5328L11.4518 13.8409L11.3628 9.62577C11.3607 9.5105 11.2664 9.41619 11.1526 9.41619C11.0383 9.41619 10.9441 9.51007 10.9423 9.62621L10.8629 13.84C10.8629 13.8426 10.9423 15.5345 10.9423 15.5345C10.9441 15.6489 11.0387 15.7432 11.1526 15.7432V15.7424ZM9.75969 15.7367C9.85915 15.7367 9.93898 15.6568 9.9416 15.5551V15.5564L10.0498 13.8409L9.9416 10.1646C9.93898 10.0628 9.85871 9.98336 9.75969 9.98336C9.65979 9.98336 9.57952 10.0628 9.57734 10.1646L9.48137 13.8409L9.57778 15.5559C9.57996 15.6564 9.65979 15.7363 9.76012 15.7363L9.75969 15.7367ZM6.3706 15.7201C6.4295 15.7201 6.47748 15.6729 6.48184 15.6105L6.63845 13.8387L6.48184 12.1529C6.48141 12.0905 6.42993 12.0438 6.3706 12.0438C6.31084 12.0438 6.26285 12.0909 6.25936 12.1538L6.12152 13.8387L6.25936 15.6105C6.26329 15.6729 6.31084 15.7201 6.3706 15.7201V15.7201ZM5.05319 15.6232C5.09637 15.6232 5.13127 15.5891 5.13607 15.542L5.31187 13.8383L5.13607 12.0704C5.13083 12.0232 5.09594 11.9892 5.05275 11.9892C5.00913 11.9892 4.97423 12.0232 4.96986 12.0704L4.815 13.8383L4.96986 15.5415C4.9703 15.5887 5.00913 15.6232 5.05275 15.6232H5.05319ZM10.4546 10.103C10.3469 10.103 10.2605 10.189 10.2583 10.2986L10.1706 13.8405L10.2583 15.545C10.2605 15.6533 10.3469 15.7393 10.4546 15.7393C10.5624 15.7393 10.6483 15.6537 10.6509 15.5437V15.545L10.7495 13.8405L10.6509 10.2977C10.6483 10.1881 10.5624 10.1026 10.4546 10.1026V10.103ZM7.71114 15.7376C7.78574 15.7376 7.84725 15.6769 7.85074 15.5992L7.98771 13.8396L7.85074 10.4711C7.84681 10.3933 7.78574 10.3327 7.71114 10.3327C7.63611 10.3327 7.5746 10.3933 7.57155 10.4711L7.45028 13.8396L7.57155 15.5992C7.5746 15.676 7.63611 15.7367 7.71114 15.7367V15.7376ZM9.24014 15.5708V15.5699L9.35792 13.8391L9.24014 10.0663C9.23752 9.97245 9.16336 9.89909 9.07219 9.89909C8.98058 9.89909 8.90685 9.97245 8.90424 10.0663L8.79998 13.8387L8.90467 15.5703C8.90729 15.6633 8.98101 15.7363 9.07262 15.7363C9.16379 15.7363 9.23752 15.6629 9.24057 15.5695L9.24014 15.5708ZM18.1393 11.6643C17.8601 11.6643 17.5935 11.7211 17.3506 11.8228C17.1883 9.98336 15.6475 8.54077 13.7678 8.54077C13.308 8.54077 12.8595 8.63159 12.4635 8.78484C12.3095 8.84422 12.2685 8.90579 12.2671 9.02498V15.5022C12.2689 15.6271 12.3657 15.731 12.4874 15.7437C12.4927 15.7437 18.1031 15.7472 18.1393 15.7472C19.2652 15.7472 20.1782 14.8333 20.1782 13.7064C20.1782 12.5791 19.2656 11.6652 18.1393 11.6652V11.6643ZM11.8501 9.01931C11.7275 9.01931 11.6272 9.11973 11.6254 9.24373L11.5334 13.8409L11.6254 15.5092C11.6272 15.631 11.7275 15.7315 11.8501 15.7315C11.9723 15.7315 12.0726 15.631 12.0748 15.5075V15.5097L12.1747 13.8409L12.0748 9.24329C12.073 9.12017 11.9723 9.01931 11.8501 9.01931" fill="white"/>
<defs>
<linearGradient id="paint0_linear_10_259" x1="12.305" y1="23.7965" x2="11.7965" y2="-0.1015" gradientUnits="userSpaceOnUse">
<stop stop-color="#FF433A"/>
<stop offset="1" stop-color="#FF9436"/>
</linearGradient>
</defs>
</svg>
