<svg width="24" height="24" viewBox="0 0 24 24" fill="none" xmlns="http://www.w3.org/2000/svg">
<rect width="24" height="24" rx="12" fill="black"/>
<path fill-rule="evenodd" clip-rule="evenodd" d="M14.5919 10.3687C15.3958 10.9406 16.3584 11.2462 17.3446 11.2425V9.28622C17.1507 9.28676 16.9574 9.26598 16.768 9.22427V10.7828C15.7796 10.7845 14.8155 10.4755 14.0121 9.89919V13.9226C14.0097 14.5828 13.8288 15.2301 13.4886 15.7957C13.1484 16.3614 12.6617 16.8243 12.0799 17.1355C11.4982 17.4467 10.8431 17.5945 10.1842 17.5633C9.52533 17.5321 8.88717 17.3229 8.3374 16.9581C8.84592 17.4731 9.49569 17.8254 10.2044 17.9706C10.9131 18.1157 11.649 18.047 12.3187 17.7733C12.9884 17.4996 13.5619 17.0331 13.9666 16.433C14.3713 15.8328 14.5889 15.1259 14.5919 14.4019V10.3687ZM15.3054 8.37329C14.8966 7.92984 14.6458 7.36356 14.5919 6.76262V6.5083H14.0447C14.1123 6.89029 14.2595 7.25375 14.4767 7.57507C14.6939 7.89638 14.9763 8.16835 15.3054 8.37329V8.37329ZM9.6046 15.4094C9.41492 15.1611 9.29867 14.8645 9.2691 14.5534C9.23953 14.2423 9.29781 13.9291 9.43732 13.6495C9.57683 13.3699 9.79197 13.1351 10.0582 12.9718C10.3245 12.8086 10.6312 12.7234 10.9435 12.726C11.1159 12.726 11.2872 12.7524 11.4516 12.8043V10.7828C11.2595 10.7573 11.0656 10.7464 10.8718 10.7502V12.3217C10.4715 12.1951 10.0382 12.2239 9.65813 12.4024C9.27806 12.5809 8.97906 12.8961 8.82059 13.2852C8.66212 13.6744 8.65579 14.1089 8.80287 14.5025C8.94995 14.8961 9.23966 15.2199 9.61437 15.4094H9.6046Z" fill="#EE1D52"/>
<path fill-rule="evenodd" clip-rule="evenodd" d="M14.012 9.88615C14.8155 10.4624 15.7795 10.7715 16.7679 10.7697V9.21123C16.2048 9.09205 15.6932 8.79896 15.3053 8.37329C14.9762 8.16835 14.6939 7.89638 14.4767 7.57507C14.2595 7.25375 14.1123 6.89029 14.0446 6.5083H12.6048V14.4019C12.6034 14.7513 12.4928 15.0915 12.2884 15.3748C12.084 15.658 11.7962 15.8701 11.4652 15.9812C11.1342 16.0924 10.7768 16.097 10.4431 15.9944C10.1094 15.8919 9.81615 15.6873 9.60454 15.4094C9.26918 15.24 9.00061 14.9625 8.84216 14.6216C8.68371 14.2808 8.64462 13.8964 8.7312 13.5306C8.81778 13.1647 9.02498 12.8387 9.31936 12.6052C9.61375 12.3717 9.97815 12.2443 10.3538 12.2435C10.5261 12.244 10.6974 12.2704 10.862 12.3217V10.7502C10.151 10.7673 9.46054 10.9917 8.87527 11.396C8.29 11.8004 7.83541 12.3669 7.56731 13.0262C7.29921 13.6854 7.22926 14.4087 7.36605 15.1072C7.50284 15.8056 7.84041 16.4489 8.33734 16.9581C8.88722 17.3256 9.52639 17.5368 10.1868 17.5694C10.8471 17.602 11.504 17.4547 12.0873 17.1432C12.6706 16.8317 13.1586 16.3677 13.4993 15.8005C13.84 15.2334 14.0205 14.5844 14.0218 13.9226L14.012 9.88615Z" fill="white"/>
<path fill-rule="evenodd" clip-rule="evenodd" d="M16.768 9.21112V8.79051C16.2509 8.79271 15.7437 8.648 15.3054 8.37317C15.6923 8.80007 16.2043 9.09341 16.768 9.21112V9.21112ZM14.0447 6.50818C14.0447 6.43319 14.0219 6.35494 14.0121 6.27995V6.02563H12.025V13.9225C12.0233 14.3647 11.8464 14.7881 11.533 15.0999C11.2197 15.4116 10.7957 15.5862 10.3539 15.5853C10.0937 15.5866 9.837 15.5263 9.60463 15.4093C9.81624 15.6872 10.1095 15.8917 10.4432 15.9943C10.7769 16.0969 11.1343 16.0923 11.4653 15.9811C11.7962 15.87 12.0841 15.6579 12.2885 15.3746C12.4929 15.0914 12.6035 14.7512 12.6049 14.4018V6.50818H14.0447ZM10.8621 10.7468V10.3001C10.0444 10.1889 9.21316 10.3582 8.50391 10.7804C7.79466 11.2026 7.24918 11.8527 6.95637 12.6249C6.66356 13.3971 6.64069 14.2458 6.89149 15.0327C7.14228 15.8195 7.65195 16.4982 8.33744 16.958C7.84427 16.4477 7.51029 15.8046 7.37629 15.1074C7.24229 14.4102 7.31408 13.689 7.58288 13.032C7.85169 12.3749 8.30587 11.8105 8.88994 11.4075C9.47401 11.0046 10.1627 10.7807 10.8718 10.7631L10.8621 10.7468Z" fill="#69C9D0"/>
</svg>
