<svg width="24" height="24" viewBox="0 0 24 24" fill="none" xmlns="http://www.w3.org/2000/svg">
<rect width="24" height="24" rx="12" fill="#9146FF"/>
<path d="M15.2681 12.8743L13.538 14.4795H11.8079L10.294 15.884V14.4795H8.34766V8.46008H15.2681V12.8743Z" fill="#9146FF"/>
<path d="M9.26095 6.78259L8.73922 7.30433L7.82617 13.1739L10.5653 14.6087L10.9566 15.1304L13.5653 14.2174L16.4349 12L16.5653 9.91303L16.4349 6.91303L16.0436 6.78259H9.26095Z" fill="white"/>
<path d="M8.94536 6.37122L6.78271 8.37769V15.601H9.37789V17.6075L11.5405 15.601H13.2707L17.1634 11.9893V6.37122H8.94536ZM16.2984 11.588L14.5683 13.1932H12.8381L11.3243 14.5978V13.1932H9.37789V7.17381H16.2984V11.588Z" fill="black"/>
<path d="M15.0008 8.57837H14.1357V10.9861H15.0008V8.57837Z" fill="black"/>
<path d="M12.6229 8.57837H11.7578V10.9861H12.6229V8.57837Z" fill="black"/>
</svg>
