<svg width="24" height="24" viewBox="0 0 24 24" fill="none" xmlns="http://www.w3.org/2000/svg">
<rect width="24" height="24" rx="12" fill="#33CCFF"/>
<path d="M17.9563 8.20039C17.56 8.37108 17.1434 8.48995 16.7168 8.55404C16.9163 8.51981 17.2098 8.16046 17.3266 8.01501C17.5041 7.79561 17.6393 7.54515 17.7255 7.27634C17.7255 7.25638 17.7455 7.22786 17.7255 7.2136C17.7155 7.20811 17.7042 7.20523 17.6927 7.20523C17.6813 7.20523 17.67 7.20811 17.66 7.2136C17.1967 7.46469 16.7037 7.65634 16.1925 7.784C16.1747 7.78944 16.1557 7.78993 16.1377 7.78541C16.1196 7.78089 16.1031 7.77153 16.0899 7.75833C16.0501 7.71091 16.0073 7.66613 15.9617 7.62429C15.7532 7.43732 15.5167 7.2843 15.2607 7.17082C14.9152 7.02895 14.5421 6.96751 14.1694 6.99114C13.8078 7.014 13.4547 7.11108 13.1322 7.27634C12.8146 7.45058 12.5354 7.68728 12.3115 7.97223C12.076 8.26552 11.906 8.60588 11.8129 8.97043C11.7361 9.31719 11.7274 9.67559 11.7872 10.0257C11.7872 10.0856 11.7872 10.0941 11.7359 10.0856C9.70426 9.7861 8.03732 9.06455 6.67527 7.51591C6.61543 7.44746 6.58409 7.44746 6.53564 7.51591C5.94295 8.41714 6.23075 9.84314 6.97161 10.5476C7.07135 10.6417 7.17393 10.733 7.28221 10.8185C6.94253 10.7944 6.61114 10.7023 6.30769 10.5476C6.2507 10.5105 6.21935 10.5305 6.2165 10.5989C6.20843 10.6938 6.20843 10.7892 6.2165 10.8841C6.27596 11.3389 6.45503 11.7697 6.73539 12.1325C7.01576 12.4953 7.38736 12.7771 7.81221 12.949C7.91577 12.9934 8.02369 13.0268 8.1342 13.0488C7.81974 13.1108 7.49722 13.1204 7.17962 13.0773C7.11124 13.0631 7.08559 13.1001 7.11124 13.1657C7.53011 14.3065 8.43909 14.6545 9.10587 14.8484C9.19705 14.8627 9.28823 14.8627 9.39081 14.8855C9.39081 14.8855 9.39081 14.8855 9.37372 14.9026C9.1771 15.262 8.3821 15.5044 8.01737 15.6299C7.35164 15.8692 6.64185 15.9607 5.93726 15.8979C5.82613 15.8808 5.80048 15.8837 5.77199 15.8979C5.74349 15.9122 5.77199 15.9436 5.80333 15.9721C5.9458 16.0662 6.08828 16.1489 6.23645 16.2288C6.67756 16.4696 7.1439 16.6609 7.62699 16.7992C10.1288 17.4894 12.9441 16.9817 14.8219 15.1136C16.2979 13.6477 16.8165 11.6256 16.8165 9.60072C16.8165 9.52372 16.9106 9.47809 16.9647 9.43816C17.3381 9.14694 17.6674 8.80302 17.9421 8.41714C17.9897 8.35962 18.014 8.28639 18.0105 8.2118V8.2118C18.0105 8.16902 18.0105 8.17757 17.9563 8.20039Z" fill="white"/>
</svg>
