<svg width="24" height="24" viewBox="0 0 24 24" fill="none" xmlns="http://www.w3.org/2000/svg">
<rect width="24" height="24" rx="12" fill="#32B8E8"/>
<path d="M17.9407 9.62798C17.8887 10.7041 17.0942 12.1777 15.5575 14.048C13.9687 16.0017 12.6245 16.9784 11.5249 16.9784C10.844 16.9784 10.2673 16.3837 9.7966 15.1938C9.48202 14.1031 9.16779 13.0125 8.85333 11.9217C8.50358 10.7325 8.12858 10.1371 7.72765 10.1371C7.64024 10.1371 7.33431 10.3111 6.81055 10.6578L6.26074 9.98769C6.83743 9.50827 7.40641 9.02895 7.96615 8.54897C8.7353 7.92014 9.31269 7.58945 9.6975 7.55601C10.607 7.47337 11.1667 8.06148 11.3769 9.32047C11.6039 10.6788 11.761 11.5236 11.8493 11.8543C12.1114 12.9812 12.3998 13.544 12.715 13.544C12.9596 13.544 13.327 13.1785 13.8168 12.4476C14.3062 11.7165 14.5683 11.1603 14.6037 10.7782C14.6734 10.1472 14.4112 9.83101 13.8168 9.83101C13.5371 9.83101 13.2487 9.89192 12.952 10.0123C13.5262 8.23262 14.6235 7.36832 16.2431 7.41765C17.4438 7.45097 18.0099 8.18771 17.9407 9.62798Z" fill="white"/>
</svg>
