<svg width="24" height="24" viewBox="0 0 24 24" fill="none" xmlns="http://www.w3.org/2000/svg">
<rect width="24" height="24" rx="12" fill="#2787F5"/>
<path fill-rule="evenodd" clip-rule="evenodd" d="M19.0026 8.54442C19.104 8.22715 19.0026 7.99402 18.5199 7.99402H16.9237C16.5178 7.99402 16.3307 8.19541 16.2293 8.41748C16.2293 8.41748 15.4175 10.2735 14.2676 11.4791C13.8956 11.8281 13.7265 11.9391 13.5236 11.9391C13.4221 11.9391 13.2752 11.8281 13.2752 11.5108V8.54442C13.2752 8.1637 13.1575 7.99402 12.8192 7.99402H10.3109C10.0573 7.99402 9.90477 8.17072 9.90477 8.33819C9.90477 8.6991 10.4797 8.78233 10.539 9.79759V12.0026C10.539 12.486 10.4459 12.5737 10.243 12.5737C9.70184 12.5737 8.38558 10.7094 7.60491 8.57613C7.45192 8.16151 7.29847 7.99402 6.89053 7.99402H5.29434C4.83829 7.99402 4.74707 8.19541 4.74707 8.41748C4.74707 8.81407 5.28821 10.7811 7.26672 13.3827C8.58572 15.1593 10.4441 16.1224 12.1351 16.1224C13.1498 16.1224 13.2753 15.9085 13.2753 15.54V14.1972C13.2753 13.7694 13.3714 13.684 13.6927 13.684C13.9294 13.684 14.3353 13.7951 15.2823 14.6517C16.3645 15.6669 16.543 16.1224 17.1517 16.1224H18.7479C19.204 16.1224 19.432 15.9085 19.3005 15.4863C19.1565 15.0656 18.6398 14.4552 17.9541 13.7316C17.5821 13.3192 17.0241 12.875 16.8549 12.6529C16.6182 12.3674 16.6858 12.2405 16.8549 11.9867C16.8549 11.9867 18.7997 9.41687 19.0026 8.54442Z" fill="white"/>
</svg>
